<?xml version="1.0" encoding="UTF-8" standalone="no"?>
<!DOCTYPE svg PUBLIC "-//W3C//DTD SVG 1.1//EN"
 "http://www.w3.org/Graphics/SVG/1.1/DTD/svg11.dtd">
<!-- Generated by graphviz version 2.40.1 (20161225.0304)
 -->
<!-- Title: multi Pages: 1 -->
<svg width="218pt" height="110pt"
 viewBox="0.00 0.00 218.00 110.00" xmlns="http://www.w3.org/2000/svg" xmlns:xlink="http://www.w3.org/1999/xlink">
<g id="graph0" class="graph" transform="scale(1 1) rotate(0) translate(4 106)">
<title>multi</title>
<polygon fill="#ffffff" stroke="transparent" points="-4,4 -4,-106 214,-106 214,4 -4,4"/>
<!-- u -->
<g id="node1" class="node">
<title>u</title>
<polygon fill="none" stroke="#000000" points="0,-7.5 0,-94.5 82,-94.5 82,-7.5 0,-7.5"/>
<text text-anchor="start" x="26" y="-79.3" font-family="SourceSansPro-Regular" font-size="14.00" fill="#000000">User</text>
<polyline fill="none" stroke="#000000" points="0,-71.5 82,-71.5 "/>
<text text-anchor="start" x="18" y="-57.3" font-family="SourceSansPro-Regular" font-weight="bold" font-size="14.00" fill="#000000">id [PK]</text>
<text text-anchor="start" x="8" y="-43.3" font-family="SourceSansPro-Regular" font-size="14.00" fill="#000000">first_name</text>
<text text-anchor="start" x="8.5" y="-29.3" font-family="SourceSansPro-Regular" font-size="14.00" fill="#000000">last_name</text>
<text text-anchor="start" x="10" y="-15.3" font-family="SourceSansPro-Regular" font-size="14.00" fill="#000000">image_url</text>
</g>
<!-- p -->
<g id="node2" class="node">
<title>p</title>
<polygon fill="none" stroke="#000000" points="118,-.5 118,-101.5 210,-101.5 210,-.5 118,-.5"/>
<text text-anchor="start" x="149.5" y="-86.3" font-family="SourceSansPro-Regular" font-size="14.00" fill="#000000">Post</text>
<polyline fill="none" stroke="#000000" points="118,-78.5 210,-78.5 "/>
<text text-anchor="start" x="141" y="-64.3" font-family="SourceSansPro-Regular" font-weight="bold" font-size="14.00" fill="#000000">id [PK]</text>
<text text-anchor="start" x="153" y="-50.3" font-family="SourceSansPro-Regular" font-size="14.00" fill="#000000">title</text>
<text text-anchor="start" x="141" y="-36.3" font-family="SourceSansPro-Regular" font-size="14.00" fill="#000000">content</text>
<text text-anchor="start" x="130.5" y="-22.3" font-family="SourceSansPro-Regular" font-size="14.00" fill="#000000">created_at</text>
<text text-anchor="start" x="126" y="-8.3" font-family="SourceSansPro-Regular" font-style="italic" font-size="14.00" fill="#000000">user_id [FK]</text>
</g>
<!-- u&#45;&gt;p -->
<g id="edge1" class="edge">
<title>u&#45;&gt;p</title>
<path fill="none" stroke="#000000" d="M82.2994,-51C90.526,-51 99.295,-51 107.9207,-51"/>
<polygon fill="#000000" stroke="#000000" points="107.9397,-51.0001 117.9397,-55.5 112.9397,-51 117.9397,-51 117.9397,-51 117.9397,-51 112.9397,-51 117.9396,-46.5 107.9397,-51.0001 107.9397,-51.0001"/>
</g>
</g>
</svg>
